<svg width="777" height="845" viewBox="0 0 777 845" fill="none" xmlns="http://www.w3.org/2000/svg">
<path fill-rule="evenodd" clip-rule="evenodd" d="M426.755 -31.3391C526.01 -26.6231 630.416 10.2627 691.019 87.0581C747.053 158.064 709.403 258.888 725.408 347.114C738.276 418.044 786.302 480.961 775.404 552.204C763.332 631.132 724.842 706.452 662.532 758.186C597.271 812.368 510.835 857.895 426.755 841.671C345.261 825.947 319.875 722.823 250.249 678.635C174.069 630.287 41.2528 656.785 6.43092 574.913C-27.6816 494.71 83.9568 424.257 106.308 340.209C131.067 247.108 79.6084 134.633 143.094 61.0241C208.865 -15.2364 324.689 -36.1886 426.755 -31.3391Z" fill="#FDC435"/>
</svg>
